<?xml version="1.0" encoding="iso-8859-1"?>
<!-- Generator: Adobe Illustrator 16.0.0, SVG Export Plug-In . SVG Version: 6.00 Build 0)  -->
<!DOCTYPE svg PUBLIC "-//W3C//DTD SVG 1.1//EN" "http://www.w3.org/Graphics/SVG/1.1/DTD/svg11.dtd">
<svg version="1.1" id="Capa_1" xmlns="http://www.w3.org/2000/svg" xmlns:xlink="http://www.w3.org/1999/xlink" x="0px" y="0px"
	 width="94px" height="94px" viewBox="0 0 94 94" style="enable-background:new 0 0 94 94;" xml:space="preserve">
<g>
	<path d="M89,0H5C2.238,0,0,2.239,0,5v84c0,2.761,2.238,5,5,5h84c2.762,0,5-2.239,5-5V5C94,2.239,91.762,0,89,0z M53.012,64.352
		c-4.834,0-9.379-2.612-10.934-5.578c0,0-2.6,10.309-3.146,12.299c-1.938,7.031-7.637,14.068-8.078,14.645
		c-0.311,0.4-0.992,0.275-1.063-0.257c-0.123-0.896-1.578-9.769,0.133-17.005c0.857-3.635,5.756-24.384,5.756-24.384
		s-1.428-2.857-1.428-7.082c0-6.631,3.846-11.583,8.631-11.583c4.07,0,6.035,3.056,6.035,6.719c0,4.091-2.605,10.209-3.949,15.878
		c-1.123,4.749,2.378,8.62,7.06,8.62c8.478,0,14.187-10.89,14.187-23.792c0-9.806-6.6-17.149-18.616-17.149
		c-13.571,0-22.034,10.124-22.034,21.433c0,3.898,1.152,6.65,2.955,8.776c0.826,0.978,0.943,1.371,0.643,2.494
		c-0.219,0.825-0.707,2.805-0.912,3.59c-0.299,1.135-1.217,1.541-2.242,1.121c-6.25-2.552-9.164-9.398-9.164-17.095
		c0-12.711,10.721-27.955,31.982-27.955c17.086,0,28.33,12.362,28.33,25.635C77.156,51.236,67.395,64.352,53.012,64.352z"/>
</g>
<g>
</g>
<g>
</g>
<g>
</g>
<g>
</g>
<g>
</g>
<g>
</g>
<g>
</g>
<g>
</g>
<g>
</g>
<g>
</g>
<g>
</g>
<g>
</g>
<g>
</g>
<g>
</g>
<g>
</g>
</svg>
